<?xml version="1.0" encoding="UTF-8"?>
<svg id="Layer_1" xmlns="http://www.w3.org/2000/svg" viewBox="0 0 238.91 169.15">
  <defs>
    <style>
    </style>
  </defs>
  <path fill="rgb(29, 54, 35)" class="cls-1" d="M7.07,16.99s-.8,1.62-1.44,2.64c-.37.6-2.64,3.6-2.64,3.6,0,0-3.64.95-2.88,4.56.54,2.53,5.76-4.8,11.52-3.12,3.89,1.14,2.64,3.83,3.36,5.52.39.92,1.18-.2,1.44,1.44,2.76,17.59-.47,55.39,7.44,74.88,5.77,14.22,4.76,12.16,6.48,11.28,1.16-.59,1.42,4.73,3.84,2.64,2.42-2.09,4.38,6.75,5.64,4.91,1.73-2.53,5.06,7.58,6.84,4.69,1.01-1.63,2.77,1.96,5.52,4.32,2.69,2.31,6.35,3.87,6,2.4-.83-3.48,1.05.08,6.48,1.92,2.01.68,2.25,2.61,4.08,2.64,1.99.03,4.27-.24,4.87.78.27.47,2.76.9,3.05.18.31-.76,2.13-.45,3.12.72.67.79,2.41-.62,2.64.72.22,1.28-.16,2.38,1.92,2.64.82.1.7,1.13,1.44,1.92.47.5.89.43,1.2.96,1.79,3.03.87,7.76-3.12,11.52-4.01,3.78-3.1,4.07-4.56,4.8s-5.38,1.76-10.08,1.92c-9.07.31-9.06-.73-10.32-.48s-2.29,1.31-1.92,1.44,1.91-.55,3.36,0c1.65.62,5.32.72,6.72.72,1.89,0,6.17-.66,10.32-1.2,4.15-.54,6.03-.56,12-.24s11.2.54,12-.96c.44-.82-1.28-.56-4.08-.48-2.78.08-5.5.27-6-1.44-.81-2.78,1.28-5.57,7.68-10.8,4.44-3.63,3.56-3.05,4.32-6.24.24-1.03,3.64-4.52,6.48-4.32,3.82.27,2.67-1.39,4.56-1.44,1.15-.03.69.86,2.16.72,1.37-.13.69-1.72,2.4-1.2.6.18.03-3.15,2.64-1.68,1.28.72,1.84,1.21,3.36.48.82-.4.3-1.83,1.44-2.16,3.22-.93,3.48-1.83,5.76-1.92,1.86-.08.92-3.28,3.12-3.36,2.86-.1,1.29-1.03,4.08-1.68s-.83-1.76,1.68-2.64c4.16-1.46,4.98.47,5.76.48,1.4.02.33-1.38,2.4-.72s1.41,1.07,2.88.96c1.2-.09-.11-2.84,4.08-1.2,1.61.63.54-1.18,1.2-1.68,1.11-.84.99,1.74,2.16.72s1.64-1.23,4.56-.48,3.93,1.14,4.8.96c.71-.14.37-1.5,1.92-1.44,1.84.07,7.28,2.66,8.4,1.44s1.91-1.8,4.08-.96c3.57,1.38,5.75,1.54,8.4,1.92s7.05-.17,8.88.96,1.4.56,6.48,1.68,7.39,1.8,11.52,2.64,8.18,1.84,9.02.72c.68-.9,1.64-.06,1.78-.96.14-.91-1.81-1.51-.72-2.4.7-.57,2.05.41,2.4-.24.25-.46-1.51-2.11.72-2.88s4.96.2,5.28-.96-4.21-2.25-2.64-3.6,4.43-.48,4.56-1.68-4-1.7-3.84-2.88,3.87-1.04-1.44-2.16c-4.23-.89-56.23-16.03-55.44-18,.55-1.38,2.2.49,2.16-.72s-22.27-6.29-21.84-8.64c.39-2.11,12.1-.27,21.84-2.4s14.57-.3,18-.24,2.65-1.13,1.2-1.44-23.52-2.63-22.32-4.32,24.54-7.66,27.12-9.12,9.12-3.28,9.36-4.32-1.21-.14-2.64-1.2c-1.79-1.32-21.9,1.68-26.4,1.92-3.52.19-12.79.93-14.4.96s-.7-1.83-1.92-1.44-13.07,1.42-24.72-1.2-19.68-5.12-20.4-6.96c-.3-.76-.06-.8-.72-1.68-.61-.82-15.25-10.91-23.52-11.76-1.32-.14.02-1.73-4.59-2.7-2.97-.62-5.71-1.29-6.21-2.1-.81-1.29-3.49-1.82-6.02-2.15-2.81-.36-8.31-.78-12.94-.25-2.12.24-3.38,1.04-5.52.24s-8.65-5.72-13.44-17.52C46.48,12.47,41.05,3.43,30.83.91,26.11-.25,21.81-.92,14.27,2.83c-6.34,3.16-7.2,14.16-7.2,14.16Z"/>
</svg>