# This file uses centimeters as units for non-parametric coordinates.

v -148.361465 1.010828 100.492058
v -148.361465 1.893790 100.518364
v -74.180733 1.010828 100.492058
v -74.180733 1.893790 100.518364
v 0.000000 1.010828 100.492058
v 0.000000 1.893790 100.518364
v 74.180733 1.010828 100.492058
v 74.180733 1.893790 100.518364
v 148.361465 1.010828 100.492058
v 148.361465 1.893790 100.518364
v 12.226525 7.492935 -42.176739
v 12.226525 8.375897 -42.150436
v 6.002449 7.602044 -45.839409
v 6.002449 8.485006 -45.813107
v 0.000000 7.632859 -46.873859
v 0.000000 8.515821 -46.847557
v -5.708167 7.602044 -45.839409
v -5.708167 8.485006 -45.813107
v -11.932242 7.492935 -42.176739
v -11.932242 8.375897 -42.150436
v 0.000000 5.135182 36.970676
v 44.775326 5.121891 37.416836
v 89.646240 5.074832 38.996552
v 89.646240 5.957794 39.022854
v 44.775326 6.004853 37.443138
v 0.000000 6.018144 36.996979
v -44.648403 6.004853 37.443138
v -89.519318 5.957794 39.022854
v -89.519318 5.074832 38.996552
v -44.648403 5.121891 37.416836
v -148.522064 -1.066681 100.349998
v -148.522064 1.066681 100.349998
v -111.391556 -1.066681 100.349998
v -111.391556 1.066681 100.349998
v -74.261040 -1.066681 100.349998
v -74.261040 1.066681 100.349998
v -37.130520 -1.066681 100.349998
v -37.130520 1.066681 100.349998
v 0.000000 -1.066681 100.349998
v 0.000000 1.066681 100.349998
v 37.130520 -1.066681 100.349998
v 37.130520 1.066681 100.349998
v 74.261040 -1.066681 100.349998
v 74.261040 1.066681 100.349998
v 111.391556 -1.066681 100.349998
v 111.391556 1.066681 100.349998
v 148.522064 -1.066681 100.349998
v 148.522064 1.066681 100.349998
v 148.522064 -1.066681 60.209999
v 148.522064 1.066681 60.209999
v 148.522064 -1.066681 20.070000
v 148.522064 1.066681 20.070000
v 148.522064 -1.066681 -20.070000
v 148.522064 1.066681 -20.070000
v 148.522064 -1.066681 -60.209999
v 148.522064 1.066681 -60.209999
v 148.522064 -1.066681 -100.349998
v 148.522064 1.066681 -100.349998
v 111.391556 -1.066681 -100.349998
v 111.391556 1.066681 -100.349998
v 74.261040 -1.066681 -100.349998
v 74.261040 1.066681 -100.349998
v 37.130520 -1.066681 -100.349998
v 37.130520 1.066681 -100.349998
v 0.000000 -1.066681 -100.349998
v 0.000000 1.066681 -100.349998
v -37.130520 -1.066681 -100.349998
v -37.130520 1.066681 -100.349998
v -74.261040 -1.066681 -100.349998
v -74.261040 1.066681 -100.349998
v -111.391556 -1.066681 -100.349998
v -111.391556 1.066681 -100.349998
v -148.522064 -1.066681 -100.349998
v -148.522064 1.066681 -100.349998
v -148.522064 -1.066681 -60.209999
v -148.522064 1.066681 -60.209999
v -148.522064 -1.066681 -20.070000
v -148.522064 1.066681 -20.070000
v -148.522064 -1.066681 20.070000
v -148.522064 1.066681 20.070000
v -148.522064 -1.066681 60.209999
v -148.522064 1.066681 60.209999
v -111.391556 2.071412 60.209999
v -111.391556 2.071412 20.070000
v -111.391556 2.071412 -20.070000
v -111.391556 2.071412 -60.209999
v -74.261040 2.071412 60.209999
v -74.261040 2.071412 20.070000
v -74.261040 2.071412 -20.070000
v -74.261040 2.071412 -60.209999
v -37.130520 2.071412 60.209999
v -37.130520 2.071412 20.070000
v -37.130520 2.071412 -20.070000
v -37.130520 2.071412 -60.209999
v 0.000000 2.071412 60.209999
v 0.000000 2.071412 20.070000
v 0.000000 2.071412 -20.070000
v 0.000000 2.071412 -60.209999
v 37.130520 2.071412 60.209999
v 37.130520 2.071412 20.070000
v 37.130520 2.071412 -20.070000
v 37.130520 2.071412 -60.209999
v 74.261040 2.071412 60.209999
v 74.261040 2.071412 20.070000
v 74.261040 2.071412 -20.070000
v 74.261040 2.071412 -60.209999
v 111.391556 2.071412 60.209999
v 111.391556 2.071412 20.070000
v 111.391556 2.071412 -20.070000
v 111.391556 2.071412 -60.209999
v -111.391556 -1.891186 -60.209999
v -111.391556 -1.891186 -20.070000
v -111.391556 -1.891186 20.070000
v -111.391556 -1.891186 60.209999
v -74.261040 -1.891186 -60.209999
v -74.261040 -2.192501 -20.070000
v -74.261040 -2.192501 20.070000
v -74.261040 -1.891186 60.209999
v -37.130520 -1.891186 -60.209999
v -37.130520 -2.192501 -20.070000
v -37.130520 -2.192501 20.070000
v -37.130520 -1.891186 60.209999
v 0.000000 -1.891186 -60.209999
v 0.000000 -2.192501 -20.070000
v 0.000000 -2.192501 20.070000
v 0.000000 -1.891186 60.209999
v 37.130520 -1.891186 -60.209999
v 37.130520 -2.192501 -20.070000
v 37.130520 -2.192501 20.070000
v 37.130520 -1.891186 60.209999
v 74.261040 -1.891186 -60.209999
v 74.261040 -2.192501 -20.070000
v 74.261040 -2.192501 20.070000
v 74.261040 -1.891186 60.209999
v 111.391556 -1.891186 -60.209999
v 111.391556 -1.891186 -20.070000
v 111.391556 -1.891186 20.070000
v 111.391556 -1.891186 60.209999
v -18.353735 8.175763 -35.432133
v -18.353767 7.292800 -35.458397
v -8.931071 7.396773 -38.948669
v 0.000000 7.426138 -39.934433
v 9.211502 7.396773 -38.948669
v 18.634199 7.292800 -35.458397
v 18.634199 8.175762 -35.432098
v 9.211502 8.279736 -38.922371
v 0.000000 8.309100 -39.908131
v -8.931071 8.279736 -38.922371
vt 0.250000 0.000000
vt 0.250000 1.000000
vt 0.000000 1.000000
vt 0.000000 0.000000
vt 0.500000 0.000000
vt 0.500000 1.000000
vt 0.750000 0.000000
vt 0.750000 1.000000
vt 1.000000 0.000000
vt 1.000000 1.000000
vt 0.431302 0.000000
vt 0.431302 1.000000
vt 0.568698 0.000000
vt 0.568698 1.000000
vt 0.250000 0.431302
vt 0.000000 0.431302
vt 0.500000 0.431302
vt 0.750000 0.431302
vt 1.000000 0.431302
vt 0.250000 0.568698
vt 0.000000 0.568698
vt 0.500000 0.568698
vt 0.750000 0.568698
vt 1.000000 0.568698
vt 0.125000 0.000000
vt 0.125000 1.000000
vt 0.375000 0.000000
vt 0.375000 1.000000
vt 0.625000 0.000000
vt 0.625000 1.000000
vt 0.875000 0.000000
vt 0.875000 1.000000
vt 0.200000 0.000000
vt 0.200000 1.000000
vt 0.400000 0.000000
vt 0.400000 1.000000
vt 0.600000 0.000000
vt 0.600000 1.000000
vt 0.800000 0.000000
vt 0.800000 1.000000
vt 0.125000 0.200000
vt 0.000000 0.200000
vt 0.250000 0.200000
vt 0.375000 0.200000
vt 0.500000 0.200000
vt 0.625000 0.200000
vt 0.750000 0.200000
vt 0.875000 0.200000
vt 1.000000 0.200000
vt 0.125000 0.400000
vt 0.000000 0.400000
vt 0.250000 0.400000
vt 0.375000 0.400000
vt 0.500000 0.400000
vt 0.625000 0.400000
vt 0.750000 0.400000
vt 0.875000 0.400000
vt 1.000000 0.400000
vt 0.125000 0.600000
vt 0.000000 0.600000
vt 0.250000 0.600000
vt 0.375000 0.600000
vt 0.500000 0.600000
vt 0.625000 0.600000
vt 0.750000 0.600000
vt 0.875000 0.600000
vt 1.000000 0.600000
vt 0.125000 0.800000
vt 0.000000 0.800000
vt 0.250000 0.800000
vt 0.375000 0.800000
vt 0.500000 0.800000
vt 0.625000 0.800000
vt 0.750000 0.800000
vt 0.875000 0.800000
vt 1.000000 0.800000
vt 0.000000 1.000000
vt 0.000000 0.000000
vt 0.250000 0.000000
vt 0.250000 1.000000
vt 0.000000 1.000000
vt 0.000000 0.000000
vt 0.500000 0.000000
vt 0.500000 1.000000
vt 0.750000 0.000000
vt 0.750000 1.000000
vt 1.000000 0.000000
vt 1.000000 1.000000
vt 0.000000 1.000000
vt 0.000000 0.000000
vt 0.250000 0.000000
vt 0.000000 0.000000
vt 0.500000 0.000000
vt 0.750000 0.000000
vt 1.000000 0.000000
vt 0.250000 0.000000
vt 0.750000 0.000000
vt 1.000000 0.000000
vt 0.750000 1.000000
vt 0.500000 1.000000
vt 1.000000 1.000000
vt 1.000000 1.000000
vt 0.750000 1.000000
vt 0.250000 1.000000
vt 1.000000 0.000000
vt 1.000000 1.000000
vt 0.250000 1.000000
vt 0.000000 1.000000
vt 0.000000 1.000000
vt 0.000000 0.000000
vt 0.250000 0.000000
vt 0.250000 1.000000
vt 0.500000 0.000000
vt 0.500000 1.000000
vt 0.750000 0.000000
vt 0.750000 1.000000
vt 1.000000 0.000000
vt 1.000000 1.000000
vt 0.000000 1.000000
vt 0.000000 0.000000
vt 1.000000 0.000000
vt 1.000000 1.000000
vt 0.125000 0.000000
vt 0.125000 1.000000
vt 0.000000 1.000000
vt 0.000000 0.000000
vt 0.250000 0.000000
vt 0.250000 1.000000
vt 0.375000 0.000000
vt 0.375000 1.000000
vt 0.500000 0.000000
vt 0.500000 1.000000
vt 0.625000 0.000000
vt 0.625000 1.000000
vt 0.750000 0.000000
vt 0.750000 1.000000
vt 0.875000 0.000000
vt 0.875000 1.000000
vt 1.000000 0.000000
vt 1.000000 1.000000
vt 0.200000 0.000000
vt 0.200000 1.000000
vt 0.000000 1.000000
vt 0.000000 0.000000
vt 0.400000 0.000000
vt 0.400000 1.000000
vt 0.600000 0.000000
vt 0.600000 1.000000
vt 0.800000 0.000000
vt 0.800000 1.000000
vt 1.000000 0.000000
vt 1.000000 1.000000
vt 0.125000 0.000000
vt 0.000000 0.000000
vt 0.250000 0.000000
vt 0.375000 0.000000
vt 0.500000 0.000000
vt 0.625000 0.000000
vt 0.750000 0.000000
vt 0.875000 0.000000
vt 1.000000 0.000000
vt 0.125000 1.000000
vt 0.250000 1.000000
vt 0.375000 1.000000
vt 0.625000 1.000000
vt 0.750000 1.000000
vt 0.875000 1.000000
vt 0.125000 0.000000
vt 0.125000 0.200000
vt 0.000000 0.200000
vt 0.250000 0.000000
vt 0.250000 0.200000
vt 0.375000 0.000000
vt 0.375000 0.200000
vt 0.500000 0.200000
vt 0.625000 0.000000
vt 0.625000 0.200000
vt 0.750000 0.000000
vt 0.750000 0.200000
vt 0.875000 0.000000
vt 0.875000 0.200000
vt 1.000000 0.200000
vt 0.125000 0.400000
vt 0.000000 0.400000
vt 0.250000 0.400000
vt 0.375000 0.400000
vt 0.500000 0.400000
vt 0.625000 0.400000
vt 0.750000 0.400000
vt 0.875000 0.400000
vt 1.000000 0.400000
vt 0.125000 0.600000
vt 0.000000 0.600000
vt 0.250000 0.600000
vt 0.375000 0.600000
vt 0.500000 0.600000
vt 0.625000 0.600000
vt 0.750000 0.600000
vt 0.875000 0.600000
vt 1.000000 0.600000
vt 0.125000 0.800000
vt 0.000000 0.800000
vt 0.250000 0.800000
vt 0.375000 0.800000
vt 0.500000 0.800000
vt 0.625000 0.800000
vt 0.750000 0.800000
vt 0.875000 0.800000
vt 1.000000 0.800000
vt 0.125000 1.000000
vt 0.000000 1.000000
vt 0.250000 1.000000
vt 0.375000 1.000000
vt 0.500000 1.000000
vt 0.625000 1.000000
vt 0.750000 1.000000
vt 0.875000 1.000000
vt 1.000000 1.000000
vt 0.047068 1.000000
vt 0.000000 0.952932
vt 0.047069 0.000000
vt 0.000000 0.047069
vt 0.250000 0.047069
vt 0.500000 0.047069
vt 0.750000 0.047069
vt 1.000000 0.047069
vt 0.952931 0.000000
vt 0.952931 1.000000
vt 1.000000 0.952931
vt 0.750000 0.952931
vt 0.500000 0.952931
vt 0.250000 0.952931
vn -0.000220 -0.739955 0.672656
vn 0.000212 0.672656 0.739955
vn -0.564227 0.771980 0.292737
vn -0.572574 -0.796935 0.192493
vn 0.000000 -0.739808 0.672819
vn 0.000000 0.672819 0.739808
vn 0.000220 -0.739955 0.672656
vn -0.000212 0.672656 0.739955
vn 0.572893 -0.796578 0.193020
vn 0.564531 0.771582 0.293200
vn 0.508808 -0.687386 -0.518280
vn 0.514932 0.725363 -0.456830
vn 0.241398 -0.692964 -0.679359
vn 0.241398 0.732174 -0.636905
vn 0.554830 0.471291 -0.685601
vn 0.554830 -0.429644 -0.712439
vn -0.003024 -0.691322 -0.722540
vn -0.003024 0.733106 -0.680108
vn -0.244330 -0.692714 -0.678564
vn -0.244330 0.731878 -0.636126
vn -0.554461 -0.429608 -0.712748
vn -0.554461 0.471273 -0.685911
vn -0.508281 -0.687365 -0.518825
vn -0.514405 0.725385 -0.457388
vn -0.021837 0.999722 0.008909
vn -0.021838 -0.998479 -0.050618
vn 0.000153 0.998867 0.047588
vn 0.000000 0.998878 0.047368
vn -0.000153 0.998867 0.047588
vn -0.000000 -0.999557 -0.029776
vn -0.000153 -0.998867 -0.047588
vn 0.000000 -0.999557 -0.029776
vn 0.000000 -0.998878 -0.047368
vn 0.000000 -0.999557 -0.029776
vn 0.000153 -0.998867 -0.047588
vn 0.021842 -0.998481 -0.050576
vn 0.021842 0.999721 0.008949
vn -0.000000 0.999557 0.029776
vn 0.000000 0.999557 0.029776
vn 0.000000 0.999557 0.029776
vn -0.003895 -0.701619 0.712542
vn -0.004739 0.700409 0.713726
vn -0.580146 0.572306 0.579566
vn -0.579645 -0.573215 0.579168
vn 0.000000 -0.699808 0.714331
vn 0.000000 0.698204 0.715899
vn 0.000000 -0.699808 0.714331
vn 0.000000 0.698204 0.715899
vn 0.000000 -0.699808 0.714331
vn 0.000000 0.698204 0.715899
vn 0.000000 -0.699808 0.714331
vn 0.000000 0.698204 0.715899
vn 0.000000 -0.699808 0.714331
vn 0.000000 0.698204 0.715899
vn 0.003895 -0.701619 0.712542
vn 0.004739 0.700409 0.713726
vn 0.579645 -0.573215 0.579168
vn 0.580146 0.572306 0.579566
vn 0.712979 -0.701176 0.003601
vn 0.714259 0.699868 0.004380
vn 0.714913 -0.699214 0.000000
vn 0.716606 0.697478 0.000000
vn 0.714913 -0.699214 0.000000
vn 0.716606 0.697478 0.000000
vn 0.712979 -0.701176 -0.003601
vn 0.714259 0.699868 -0.004380
vn 0.579645 -0.573215 -0.579168
vn 0.580146 0.572306 -0.579566
vn 0.003895 -0.701619 -0.712542
vn 0.004739 0.700409 -0.713726
vn 0.000000 -0.699808 -0.714331
vn 0.000000 0.698204 -0.715899
vn 0.000000 -0.699808 -0.714331
vn 0.000000 0.698204 -0.715899
vn 0.000000 -0.699808 -0.714331
vn 0.000000 0.698204 -0.715899
vn 0.000000 -0.699808 -0.714331
vn 0.000000 0.698204 -0.715899
vn 0.000000 -0.699808 -0.714331
vn 0.000000 0.698204 -0.715899
vn -0.003895 -0.701619 -0.712542
vn -0.004739 0.700409 -0.713726
vn -0.579645 -0.573215 -0.579168
vn -0.580146 0.572306 -0.579566
vn -0.712979 -0.701176 -0.003601
vn -0.714259 0.699868 -0.004380
vn -0.714913 -0.699214 0.000000
vn -0.716606 0.697478 0.000000
vn -0.714913 -0.699214 0.000000
vn -0.716606 0.697478 0.000000
vn -0.712979 -0.701176 0.003601
vn -0.714259 0.699868 0.004380
vn -0.010145 0.999905 0.009385
vn 0.000000 0.999922 0.012512
vn 0.000000 0.999922 0.012512
vn 0.000000 0.999922 0.012512
vn 0.000000 0.999922 0.012512
vn 0.000000 0.999922 0.012512
vn 0.010145 0.999905 0.009385
vn -0.013526 0.999909 0.000000
vn 0.000000 1.000000 0.000000
vn 0.000000 1.000000 0.000000
vn 0.000000 1.000000 0.000000
vn 0.000000 1.000000 0.000000
vn 0.000000 1.000000 0.000000
vn 0.013526 0.999909 0.000000
vn -0.013526 0.999909 0.000000
vn 0.000000 1.000000 0.000000
vn 0.000000 1.000000 0.000000
vn 0.000000 1.000000 0.000000
vn 0.000000 1.000000 0.000000
vn 0.000000 1.000000 0.000000
vn 0.013526 0.999909 0.000000
vn -0.010145 0.999905 -0.009385
vn 0.000000 0.999922 -0.012512
vn 0.000000 0.999922 -0.012512
vn 0.000000 0.999922 -0.012512
vn 0.000000 0.999922 -0.012512
vn 0.000000 0.999922 -0.012512
vn 0.010145 0.999905 -0.009385
vn -0.008326 -0.999936 -0.007702
vn 0.000000 -0.999947 -0.010269
vn 0.000000 -0.999947 -0.010269
vn 0.000000 -0.999947 -0.010269
vn 0.000000 -0.999947 -0.010269
vn 0.000000 -0.999947 -0.010269
vn 0.008326 -0.999936 -0.007702
vn -0.011101 -0.999938 0.000000
vn 0.000000 -1.000000 0.000000
vn 0.000000 -1.000000 0.000000
vn 0.000000 -1.000000 0.000000
vn 0.000000 -1.000000 0.000000
vn 0.000000 -1.000000 0.000000
vn 0.011101 -0.999938 0.000000
vn -0.011101 -0.999938 0.000000
vn 0.000000 -1.000000 0.000000
vn 0.000000 -1.000000 0.000000
vn 0.000000 -1.000000 0.000000
vn 0.000000 -1.000000 0.000000
vn 0.000000 -1.000000 0.000000
vn 0.011101 -0.999938 0.000000
vn -0.008326 -0.999936 0.007702
vn 0.000000 -0.999947 0.010269
vn 0.000000 -0.999947 0.010269
vn 0.000000 -0.999947 0.010269
vn 0.000000 -0.999947 0.010269
vn 0.000000 -0.999947 0.010269
vn 0.008326 -0.999936 0.007702
s 1
f 3/1/1 4/2/2 2/3/3 1/4/4
f 5/5/5 6/6/6 4/2/2 3/1/1
f 7/7/7 8/8/8 6/6/6 5/5/5
f 9/9/9 10/10/10 8/8/8 7/7/7
f 23/11/11 24/12/12 10/77/10 9/78/9
f 13/79/13 14/80/14 12/81/15 11/82/16
f 15/83/17 16/84/18 14/80/14 13/79/13
f 17/85/19 18/86/20 16/84/18 15/83/17
f 19/87/21 20/88/22 18/86/20 17/85/19
f 29/13/23 28/14/24 139/219/25 140/221/26
f 4/91/2 27/15/27 28/16/24 2/92/3
f 6/93/6 26/17/28 27/15/27 4/91/2
f 8/94/8 25/18/29 26/17/28 6/93/6
f 10/95/10 24/19/12 25/18/29 8/94/8
f 140/222/26 141/223/30 30/20/31 29/21/23
f 141/223/30 142/224/32 21/22/33 30/20/31
f 142/224/32 143/225/34 22/23/35 21/22/33
f 143/225/34 144/226/36 23/24/11 22/23/35
f 22/23/35 7/99/7 5/100/5 21/22/33
f 23/24/11 9/101/9 7/99/7 22/23/35
f 23/11/11 144/227/36 145/228/37 24/12/12
f 24/19/12 145/229/37 146/230/38 25/18/29
f 25/18/29 146/230/38 147/231/39 26/17/28
f 26/17/28 147/231/39 148/232/40 27/15/27
f 27/15/27 148/232/40 139/220/25 28/16/24
f 29/13/23 1/105/4 2/106/3 28/14/24
f 30/20/31 3/107/1 1/108/4 29/21/23
f 21/22/33 5/100/5 3/107/1 30/20/31
s 3
f 33/25/41 34/26/42 32/109/43 31/110/44
f 35/111/45 36/112/46 34/26/42 33/25/41
f 37/27/47 38/28/48 36/112/46 35/111/45
f 39/113/49 40/114/50 38/28/48 37/27/47
f 41/29/51 42/30/52 40/114/50 39/113/49
f 43/115/53 44/116/54 42/30/52 41/29/51
f 45/31/55 46/32/56 44/116/54 43/115/53
f 47/117/57 48/118/58 46/32/56 45/31/55
f 49/33/59 50/34/60 48/119/58 47/120/57
f 51/35/61 52/36/62 50/34/60 49/33/59
f 53/37/63 54/38/64 52/36/62 51/35/61
f 55/39/65 56/40/66 54/38/64 53/37/63
f 57/121/67 58/122/68 56/40/66 55/39/65
f 59/123/69 60/124/70 58/125/68 57/126/67
f 61/127/71 62/128/72 60/124/70 59/123/69
f 63/129/73 64/130/74 62/128/72 61/127/71
f 65/131/75 66/132/76 64/130/74 63/129/73
f 67/133/77 68/134/78 66/132/76 65/131/75
f 69/135/79 70/136/80 68/134/78 67/133/77
f 71/137/81 72/138/82 70/136/80 69/135/79
f 73/139/83 74/140/84 72/138/82 71/137/81
f 75/141/85 76/142/86 74/143/84 73/144/83
f 77/145/87 78/146/88 76/142/86 75/141/85
f 79/147/89 80/148/90 78/146/88 77/145/87
f 81/149/91 82/150/92 80/148/90 79/147/89
f 31/151/44 32/152/43 82/150/92 81/149/91
f 34/153/42 83/41/93 82/42/92 32/154/43
f 36/155/46 87/43/94 83/41/93 34/153/42
f 38/156/48 91/44/95 87/43/94 36/155/46
f 40/157/50 95/45/96 91/44/95 38/156/48
f 42/158/52 99/46/97 95/45/96 40/157/50
f 44/159/54 103/47/98 99/46/97 42/158/52
f 46/160/56 107/48/99 103/47/98 44/159/54
f 48/161/58 50/49/60 107/48/99 46/160/56
f 83/41/93 84/50/100 80/51/90 82/42/92
f 87/43/94 88/52/101 84/50/100 83/41/93
f 91/44/95 92/53/102 88/52/101 87/43/94
f 95/45/96 96/54/103 92/53/102 91/44/95
f 99/46/97 100/55/104 96/54/103 95/45/96
f 103/47/98 104/56/105 100/55/104 99/46/97
f 107/48/99 108/57/106 104/56/105 103/47/98
f 50/49/60 52/58/62 108/57/106 107/48/99
f 84/50/100 85/59/107 78/60/88 80/51/90
f 88/52/101 89/61/108 85/59/107 84/50/100
f 92/53/102 93/62/109 89/61/108 88/52/101
f 96/54/103 97/63/110 93/62/109 92/53/102
f 100/55/104 101/64/111 97/63/110 96/54/103
f 104/56/105 105/65/112 101/64/111 100/55/104
f 108/57/106 109/66/113 105/65/112 104/56/105
f 52/58/62 54/67/64 109/66/113 108/57/106
f 85/59/107 86/68/114 76/69/86 78/60/88
f 89/61/108 90/70/115 86/68/114 85/59/107
f 93/62/109 94/71/116 90/70/115 89/61/108
f 97/63/110 98/72/117 94/71/116 93/62/109
f 101/64/111 102/73/118 98/72/117 97/63/110
f 105/65/112 106/74/119 102/73/118 101/64/111
f 109/66/113 110/75/120 106/74/119 105/65/112
f 54/67/64 56/76/66 110/75/120 109/66/113
f 86/68/114 72/162/82 74/143/84 76/69/86
f 90/70/115 70/163/80 72/162/82 86/68/114
f 94/71/116 68/164/78 70/163/80 90/70/115
f 98/72/117 66/132/76 68/164/78 94/71/116
f 102/73/118 64/165/74 66/132/76 98/72/117
f 106/74/119 62/166/72 64/165/74 102/73/118
f 110/75/120 60/167/70 62/166/72 106/74/119
f 56/76/66 58/122/68 60/167/70 110/75/120
f 71/168/81 111/169/121 75/170/85 73/144/83
f 69/171/79 115/172/122 111/169/121 71/168/81
f 67/173/77 119/174/123 115/172/122 69/171/79
f 65/131/75 123/175/124 119/174/123 67/173/77
f 63/176/73 127/177/125 123/175/124 65/131/75
f 61/178/71 131/179/126 127/177/125 63/176/73
f 59/180/69 135/181/127 131/179/126 61/178/71
f 57/121/67 55/182/65 135/181/127 59/180/69
f 111/169/121 112/183/128 77/184/87 75/170/85
f 115/172/122 116/185/129 112/183/128 111/169/121
f 119/174/123 120/186/130 116/185/129 115/172/122
f 123/175/124 124/187/131 120/186/130 119/174/123
f 127/177/125 128/188/132 124/187/131 123/175/124
f 131/179/126 132/189/133 128/188/132 127/177/125
f 135/181/127 136/190/134 132/189/133 131/179/126
f 55/182/65 53/191/63 136/190/134 135/181/127
f 112/183/128 113/192/135 79/193/89 77/184/87
f 116/185/129 117/194/136 113/192/135 112/183/128
f 120/186/130 121/195/137 117/194/136 116/185/129
f 124/187/131 125/196/138 121/195/137 120/186/130
f 128/188/132 129/197/139 125/196/138 124/187/131
f 132/189/133 133/198/140 129/197/139 128/188/132
f 136/190/134 137/199/141 133/198/140 132/189/133
f 53/191/63 51/200/61 137/199/141 136/190/134
f 113/192/135 114/201/142 81/202/91 79/193/89
f 117/194/136 118/203/143 114/201/142 113/192/135
f 121/195/137 122/204/144 118/203/143 117/194/136
f 125/196/138 126/205/145 122/204/144 121/195/137
f 129/197/139 130/206/146 126/205/145 125/196/138
f 133/198/140 134/207/147 130/206/146 129/197/139
f 137/199/141 138/208/148 134/207/147 133/198/140
f 51/200/61 49/209/59 138/208/148 137/199/141
f 114/201/142 33/210/41 31/211/44 81/202/91
f 118/203/143 35/212/45 33/210/41 114/201/142
f 122/204/144 37/213/47 35/212/45 118/203/143
f 126/205/145 39/214/49 37/213/47 122/204/144
f 130/206/146 41/215/51 39/214/49 126/205/145
f 134/207/147 43/216/53 41/215/51 130/206/146
f 138/208/148 45/217/55 43/216/53 134/207/147
f 49/209/59 47/218/57 45/217/55 138/208/148
s 1
f 140/221/26 139/219/25 20/89/22 19/90/21
f 17/96/19 141/223/30 140/222/26 19/90/21
f 15/83/17 142/224/32 141/223/30 17/96/19
f 13/97/13 143/225/34 142/224/32 15/83/17
f 11/98/16 144/226/36 143/225/34 13/97/13
f 145/228/37 144/227/36 11/98/16 12/102/15
f 146/230/38 145/229/37 12/102/15 14/103/14
f 147/231/39 146/230/38 14/103/14 16/84/18
f 148/232/40 147/231/39 16/84/18 18/104/20
f 139/220/25 148/232/40 18/104/20 20/89/22
