# This file uses centimeters as units for non-parametric coordinates.

v 69.439049 -81.657906 -67.366684
v 68.588646 -80.265755 -67.956841
v 67.664528 -80.875710 -66.621361
v -2.601848 6.288407 -20.728111
v -2.091337 7.411441 -21.793446
v -2.456492 7.929996 -20.291939
v 105.049118 -79.065948 -76.991936
v 103.632462 -78.802216 -77.745972
v 103.896194 -80.218872 -76.991936
v 7.221880 17.608368 -20.291939
v 7.663735 17.166513 -21.793446
v 16.900251 27.286739 -20.291939
v 106.433632 -43.561954 -64.125168
v 106.443550 -45.105949 -63.334263
v 107.215828 -45.336475 -64.870491
v 17.627928 26.559065 -17.795746
v 18.766354 25.574038 -17.170868
v 19.269516 26.704418 -18.231918
v 9.011283 15.818965 -17.170868
v 7.949556 16.880692 -17.795746
v 104.980011 -80.149765 -73.123398
v 104.623871 -80.946548 -74.495743
v 105.776794 -79.793625 -74.495743
v -1.874172 5.560731 -18.231918
v -0.743789 6.063893 -17.170868
v -1.728817 7.202320 -17.795746
v 70.166725 -82.385582 -64.870491
v 69.936195 -81.613304 -63.334263
v 68.392204 -81.603386 -64.125168
v 106.488152 -44.608799 -67.366684
v 105.096001 -43.758400 -67.956841
v 105.705956 -42.834278 -66.621361
v 18.541840 27.432095 -20.728111
v 17.418806 26.921583 -21.793446
v -113.400002 88.400002 -16.511766
v -115.000000 90.000000 -14.911766
v -113.400002 -88.400002 -16.511766
v -115.000000 -90.000000 -14.911766
v 100.000000 -75.000000 -16.511766
v 100.000000 75.000000 -16.511766
v -100.000000 -75.000000 -16.511766
v -100.000000 75.000000 -16.511766
v 113.400002 88.400002 -16.511766
v 115.000000 90.000000 -14.911766
v 113.400002 -88.400002 -16.511766
v 115.000000 -90.000000 -14.911766
v 113.400002 88.400002 -1.608326
v 115.000000 90.000000 -3.208326
v 113.400002 -88.400002 -1.608326
v 115.000000 -90.000000 -3.208326
v -100.000000 -75.000000 -9.356817
v -100.000000 75.000000 -9.356817
v 100.000000 -75.000000 -9.356817
v 100.000000 75.000000 -9.356817
v -101.599998 -76.599998 -1.608326
v -100.000000 -75.000000 -3.208326
v -101.599998 76.599998 -1.608326
v -100.000000 75.000000 -3.208326
v 101.599998 -76.599998 -1.608326
v 100.000000 -75.000000 -3.208326
v 101.599998 76.599998 -1.608326
v 100.000000 75.000000 -3.208326
v -115.000000 -90.000000 -3.208326
v -113.400002 -88.400002 -1.608326
v -115.000000 90.000000 -3.208326
v -113.400002 88.400002 -1.608326
v -100.000000 -75.000000 -16.511766
v -100.000000 75.000000 -16.511766
v 100.000000 75.000000 -16.511766
v 100.000000 -75.000000 -16.511766
v 108.616470 -83.616470 -16.511766
v 108.616470 83.616470 -16.511766
v -108.616470 83.616470 -16.511766
v -108.616470 -83.616470 -16.511766
vt 0.018158 0.994514
vt 0.994351 1.004393
vt 0.979966 0.500000
vt 0.014565 0.500000
vt 0.994351 -0.004393
vt 0.018158 0.005486
vt 0.979052 0.960968
vt 0.016555 0.932035
vt 0.979052 0.039032
vt 0.016555 0.067965
vt 0.007002 0.500000
vt -0.000222 0.932098
vt -0.000222 0.932098
vt 0.017524 1.001040
vt 0.987344 1.002401
vt 0.987344 1.002401
vt 0.017524 1.001040
vt 1.000927 0.981065
vt 1.001572 0.528350
vt 1.001572 0.528350
vt 1.000927 0.981065
vt -0.000222 0.067902
vt -0.000222 0.067902
vt 0.980813 0.469405
vt 1.000927 0.018935
vt 1.000927 0.018935
vt 0.987344 -0.002401
vt 0.017524 -0.001040
vt 0.017524 -0.001040
vt 0.987344 -0.002401
vt 1.000000 0.000000
vt 1.000000 1.000000
vt 0.000000 1.000000
vt 0.000000 0.000000
vt 0.892642 0.000000
vt 0.892642 1.000000
vt 0.107358 1.000000
vt 0.107358 0.000000
vt 0.000000 0.892642
vt 0.000000 0.107358
vt 1.000000 0.107358
vt 1.000000 0.892642
vt 0.000000 0.989333
vt 0.000000 -0.007546
vt 1.000000 0.010667
vt 1.000000 1.007547
vt 0.008000 0.000000
vt 1.006158 0.000000
vt 0.992000 1.000000
vt -0.006158 1.000000
vt 0.979966 0.500000
vt 0.014565 0.500000
vt 0.007002 0.500000
vt 0.980813 0.469405
vt 1.000000 0.000000
vt 1.000000 1.000000
vt 0.000000 1.000000
vt 0.000000 0.000000
vt 0.892642 0.000000
vt 0.892642 1.000000
vt 0.000000 0.107358
vt 0.000000 0.892642
vt 0.000000 1.000000
vt 0.000000 1.000000
vt 0.000000 0.000000
vt 0.000000 0.000000
vt 1.000000 0.000000
vt 1.000000 0.000000
vt 1.000000 1.000000
vt 1.000000 1.000000
vt 0.000000 1.000000
vt 0.000000 1.000000
vt 0.000000 0.000000
vt 0.000000 0.000000
vt 1.000000 0.000000
vt 1.000000 0.000000
vt 1.000000 1.000000
vt 1.000000 1.000000
vt 0.000000 0.000000
vt 0.000000 0.000000
vt 1.000000 0.000000
vt 1.000000 0.000000
vt 1.000000 1.000000
vt 1.000000 1.000000
vt 0.000000 1.000000
vt 0.000000 1.000000
vt 0.000000 1.000000
vt 0.000000 0.000000
vt 1.000000 1.000000
vt 1.000000 0.000000
vt 1.000000 0.000000
vt 1.000000 1.000000
vt 0.000000 1.000000
vt 0.000000 0.000000
vt 1.000000 0.000000
vt 1.000000 1.000000
vt 0.000000 1.000000
vt 0.000000 0.000000
vn -0.283613 -0.222713 0.932718
vn -0.036869 -0.731939 0.680372
vn 0.516452 -0.516452 0.683048
vn -0.001178 0.001178 0.999999
vn -0.001178 0.001178 0.999999
vn 0.516452 -0.516452 0.683048
vn 0.731939 0.036869 0.680372
vn 0.222713 0.283613 0.932718
vn 0.026017 -0.026017 -0.999323
vn -0.476893 -0.291915 -0.829071
vn -0.739569 0.233243 -0.631376
vn -0.499167 0.499167 -0.708283
vn 0.291915 0.476893 -0.829071
vn 0.026017 -0.026017 -0.999323
vn -0.499167 0.499167 -0.708283
vn -0.233243 0.739569 -0.631376
vn -0.707106 0.707106 -0.001666
vn -0.908621 0.417620 -0.001554
vn -0.715182 0.224181 0.662010
vn -0.500832 0.500832 0.705928
vn -0.963919 -0.206900 -0.167490
vn -0.671196 -0.644805 -0.365681
vn -0.485131 -0.830869 0.272587
vn -0.770481 -0.400338 0.496074
vn -0.330671 -0.794906 -0.508705
vn 0.223259 -0.709525 -0.668378
vn 0.420827 -0.907093 0.009350
vn -0.144607 -0.980970 0.129562
vn -0.417620 0.908621 -0.001554
vn -0.707106 0.707106 -0.001666
vn -0.500832 0.500832 0.705928
vn -0.224181 0.715182 0.662010
vn 0.709525 -0.223259 -0.668378
vn 0.794906 0.330671 -0.508705
vn 0.980970 0.144607 0.129562
vn 0.907093 -0.420827 0.009350
vn 0.644805 0.671196 -0.365681
vn 0.206900 0.963919 -0.167490
vn 0.400338 0.770481 0.496074
vn 0.830869 0.485131 0.272587
vn 0.830869 0.485131 0.272587
vn 0.731939 0.036869 0.680372
vn 0.980970 0.144607 0.129562
vn -0.224181 0.715182 0.662010
vn 0.222713 0.283613 0.932718
vn 0.400338 0.770481 0.496074
vn 0.516452 -0.516452 0.683048
vn 0.420827 -0.907093 0.009350
vn 0.907093 -0.420827 0.009350
vn -0.770481 -0.400338 0.496074
vn -0.283613 -0.222713 0.932718
vn -0.715182 0.224181 0.662010
vn -0.144607 -0.980970 0.129562
vn -0.036869 -0.731939 0.680372
vn -0.485131 -0.830869 0.272587
vn 0.794906 0.330671 -0.508705
vn 0.291915 0.476893 -0.829071
vn 0.644805 0.671196 -0.365681
vn 0.206900 0.963919 -0.167490
vn -0.233243 0.739569 -0.631376
vn -0.417620 0.908621 -0.001554
vn 0.223259 -0.709525 -0.668378
vn 0.026017 -0.026017 -0.999323
vn 0.709525 -0.223259 -0.668378
vn -0.908621 0.417620 -0.001554
vn -0.739569 0.233243 -0.631376
vn -0.963919 -0.206900 -0.167490
vn -0.671196 -0.644805 -0.365681
vn -0.476893 -0.291915 -0.829071
vn -0.330671 -0.794906 -0.508705
vn 0.516452 -0.516452 0.683048
vn -0.036869 -0.731939 0.680372
vn -0.144607 -0.980970 0.129562
vn 0.420827 -0.907093 0.009350
vn -0.036869 -0.731939 0.680372
vn -0.283613 -0.222713 0.932718
vn -0.770481 -0.400338 0.496074
vn -0.485131 -0.830869 0.272587
vn -0.283613 -0.222713 0.932718
vn -0.001178 0.001178 0.999999
vn -0.500832 0.500832 0.705928
vn -0.715182 0.224181 0.662010
vn 0.222713 0.283613 0.932718
vn 0.731939 0.036869 0.680372
vn 0.830869 0.485131 0.272587
vn 0.400338 0.770481 0.496074
vn 0.731939 0.036869 0.680372
vn 0.516452 -0.516452 0.683048
vn 0.907093 -0.420827 0.009350
vn 0.980970 0.144607 0.129562
vn -0.001178 0.001178 0.999999
vn 0.222713 0.283613 0.932718
vn -0.224181 0.715182 0.662010
vn -0.500832 0.500832 0.705928
vn -0.499167 0.499167 -0.708283
vn -0.739569 0.233243 -0.631376
vn -0.908621 0.417620 -0.001554
vn -0.707106 0.707106 -0.001666
vn -0.739569 0.233243 -0.631376
vn -0.476893 -0.291915 -0.829071
vn -0.671196 -0.644805 -0.365681
vn -0.963919 -0.206900 -0.167490
vn -0.476893 -0.291915 -0.829071
vn 0.026017 -0.026017 -0.999323
vn 0.223259 -0.709525 -0.668378
vn -0.330671 -0.794906 -0.508705
vn -0.233243 0.739569 -0.631376
vn -0.499167 0.499167 -0.708283
vn -0.707106 0.707106 -0.001666
vn -0.417620 0.908621 -0.001554
vn 0.026017 -0.026017 -0.999323
vn 0.291915 0.476893 -0.829071
vn 0.794906 0.330671 -0.508705
vn 0.709525 -0.223259 -0.668378
vn 0.291915 0.476893 -0.829071
vn -0.233243 0.739569 -0.631376
vn 0.206900 0.963919 -0.167490
vn 0.644805 0.671196 -0.365681
vn -0.715182 0.224181 0.662010
vn -0.908621 0.417620 -0.001554
vn -0.963919 -0.206900 -0.167490
vn -0.770481 -0.400338 0.496074
vn -0.485131 -0.830869 0.272587
vn -0.671196 -0.644805 -0.365681
vn -0.330671 -0.794906 -0.508705
vn -0.144607 -0.980970 0.129562
vn 0.420827 -0.907093 0.009350
vn 0.223259 -0.709525 -0.668378
vn 0.709525 -0.223259 -0.668378
vn 0.907093 -0.420827 0.009350
vn -0.417620 0.908621 -0.001554
vn -0.224181 0.715182 0.662010
vn 0.400338 0.770481 0.496074
vn 0.206900 0.963919 -0.167490
vn 0.980970 0.144607 0.129562
vn 0.794906 0.330671 -0.508705
vn 0.644805 0.671196 -0.365681
vn 0.830869 0.485131 0.272587
vn 0.000000 0.000000 1.000000
vn 0.000000 0.000000 1.000000
vn 0.000000 0.000000 1.000000
vn 0.000000 0.000000 1.000000
vn 0.610132 -0.610132 -0.505449
vn 0.610132 0.610132 -0.505449
vn 0.610132 0.610132 0.505449
vn 0.610132 -0.610132 0.505449
vn 0.000000 0.000000 -1.000000
vn 0.000000 0.000000 -1.000000
vn 0.000000 0.000000 -1.000000
vn 0.000000 0.000000 -1.000000
vn -0.610132 -0.610132 0.505449
vn -0.610132 0.610132 0.505449
vn -0.610132 0.610132 -0.505449
vn -0.610132 -0.610132 -0.505449
vn 0.610132 0.610132 0.505449
vn 0.610132 0.610132 -0.505449
vn -0.610132 0.610132 -0.505449
vn -0.610132 0.610132 0.505449
vn 0.610132 -0.610132 -0.505449
vn 0.610132 -0.610132 0.505449
vn -0.610132 -0.610132 0.505449
vn -0.610132 -0.610132 -0.505449
vn 0.198757 0.198757 0.959683
vn -0.198757 -0.198757 0.959683
vn -0.198757 0.198757 0.959683
vn 0.198757 -0.198757 0.959683
vn 0.198757 -0.198757 -0.959683
vn 0.000000 0.000000 -1.000000
vn 0.000000 0.000000 -1.000000
vn 0.198757 0.198757 -0.959683
vn -0.198757 0.198757 -0.959683
vn -0.000000 0.000000 -1.000000
vn -0.000000 0.000000 -1.000000
vn -0.198757 -0.198757 -0.959683
vn -0.198757 -0.198757 0.959683
vn 0.198757 0.198757 0.959683
vn 0.198757 -0.198757 0.959683
vn -0.198757 0.198757 0.959683
vn 0.198757 0.198757 -0.959683
vn 0.000000 0.000000 -1.000000
vn 0.000000 0.000000 -1.000000
vn -0.198757 0.198757 -0.959683
vn -0.198757 0.198757 0.959683
vn 0.198757 -0.198757 0.959683
vn -0.198757 -0.198757 0.959683
vn 0.198757 0.198757 0.959683
vn 0.198757 -0.198757 0.959683
vn -0.198757 0.198757 0.959683
vn 0.198757 0.198757 0.959683
vn -0.198757 -0.198757 0.959683
vn -0.198757 -0.198757 -0.959683
vn 0.000000 0.000000 -1.000000
vn 0.000000 0.000000 -1.000000
vn 0.198757 -0.198757 -0.959683
vn 1.000000 0.000000 0.000000
vn 0.610132 -0.610132 0.505449
vn 0.610132 0.610132 0.505449
vn 1.000000 0.000000 0.000000
vn 0.000000 -1.000000 0.000000
vn -0.610132 -0.610132 0.505449
vn 0.610132 -0.610132 0.505449
vn 0.000000 -1.000000 0.000000
vn -1.000000 0.000000 0.000000
vn -0.610132 0.610132 0.505449
vn -0.610132 -0.610132 0.505449
vn -1.000000 0.000000 0.000000
vn 0.000000 1.000000 0.000000
vn 0.610132 0.610132 0.505449
vn -0.610132 0.610132 0.505449
vn 0.000000 1.000000 0.000000
vn 0.610132 -0.610132 0.505449
vn 0.610132 0.610132 0.505449
vn 0.198757 0.198757 0.959683
vn 0.198757 -0.198757 0.959683
vn 0.610132 0.610132 -0.505449
vn 0.610132 -0.610132 -0.505449
vn 0.198757 -0.198757 -0.959683
vn 0.198757 0.198757 -0.959683
vn -0.610132 -0.610132 -0.505449
vn -0.610132 0.610132 -0.505449
vn -0.198757 0.198757 -0.959683
vn -0.198757 -0.198757 -0.959683
vn -0.610132 0.610132 0.505449
vn -0.610132 -0.610132 0.505449
vn -0.198757 -0.198757 0.959683
vn -0.198757 0.198757 0.959683
vn -0.610132 0.610132 -0.505449
vn 0.610132 0.610132 -0.505449
vn 0.198757 0.198757 -0.959683
vn -0.198757 0.198757 -0.959683
vn 0.610132 0.610132 0.505449
vn -0.610132 0.610132 0.505449
vn -0.198757 0.198757 0.959683
vn 0.198757 0.198757 0.959683
vn -0.610132 -0.610132 0.505449
vn 0.610132 -0.610132 0.505449
vn 0.198757 -0.198757 0.959683
vn -0.198757 -0.198757 0.959683
vn 0.610132 -0.610132 -0.505449
vn -0.610132 -0.610132 -0.505449
vn -0.198757 -0.198757 -0.959683
vn 0.198757 -0.198757 -0.959683
vn -0.198757 0.198757 0.959683
vn -0.198757 -0.198757 0.959683
vn -0.610132 -0.610132 0.505449
vn -0.610132 0.610132 0.505449
vn 0.198757 -0.198757 0.959683
vn 0.198757 0.198757 0.959683
vn 0.610132 0.610132 0.505449
vn 0.610132 -0.610132 0.505449
vn -0.198757 -0.198757 0.959683
vn 0.198757 -0.198757 0.959683
vn 0.610132 -0.610132 0.505449
vn -0.610132 -0.610132 0.505449
vn 0.198757 0.198757 0.959683
vn -0.198757 0.198757 0.959683
vn -0.610132 0.610132 0.505449
vn 0.610132 0.610132 0.505449
vn 0.000000 0.000000 0.000000
vn 0.000000 0.000000 0.000000
vn 0.000000 0.000000 -1.000000
vn 0.000000 0.000000 -1.000000
vn 0.000000 0.000000 0.000000
vn 0.000000 0.000000 0.000000
vn 0.000000 0.000000 -1.000000
vn 0.000000 0.000000 -1.000000
vn 0.000000 0.000000 0.000000
vn 0.000000 0.000000 0.000000
vn 0.000000 0.000000 -1.000000
vn 0.000000 0.000000 -1.000000
vn 0.000000 0.000000 0.000000
vn 0.000000 0.000000 0.000000
vn 0.000000 0.000000 -1.000000
vn 0.000000 0.000000 -1.000000
vn 0.000000 0.000000 -1.000000
vn 0.000000 0.000000 -1.000000
vn 0.000000 0.000000 -1.000000
vn 0.000000 0.000000 -1.000000
vn 0.000000 0.000000 -1.000000
vn 0.000000 0.000000 -1.000000
vn 0.000000 0.000000 -1.000000
vn 0.000000 0.000000 -1.000000
s off
f 25/1/1 28/2/2 21/3/3 19/4/4
f 19/4/5 21/3/6 14/5/7 17/6/8
f 8/51/9 2/7/10 5/8/11 11/52/12
f 31/9/13 8/51/14 11/52/15 34/10/16
f 10/11/17 6/12/18 26/13/19 20/53/20
f 4/14/21 3/15/22 29/16/23 24/17/24
f 1/18/25 9/19/26 22/20/27 27/21/28
f 12/22/29 10/11/30 20/53/31 16/23/32
f 7/24/33 30/25/34 15/26/35 23/54/36
f 32/27/37 33/28/38 18/29/39 13/30/40
f 13/30/41 14/5/42 15/26/43
f 16/23/44 17/6/45 18/29/46
f 21/3/47 22/20/48 23/54/49
f 24/17/50 25/1/51 26/13/52
f 27/21/53 28/2/54 29/16/55
f 30/25/56 31/9/57 32/27/58
f 33/28/59 34/10/60 12/22/61
f 9/19/62 8/51/63 7/24/64
f 6/12/65 5/8/66 4/14/67
f 3/15/68 2/7/69 1/18/70
f 21/3/71 28/2/72 27/21/73 22/20/74
f 28/2/75 25/1/76 24/17/77 29/16/78
f 25/1/79 19/4/80 20/53/81 26/13/82
f 17/6/83 14/5/84 13/30/85 18/29/86
f 14/5/87 21/3/88 23/54/89 15/26/90
f 19/4/91 17/6/92 16/23/93 20/53/94
f 11/52/95 5/8/96 6/12/97 10/11/98
f 5/8/99 2/7/100 3/15/101 4/14/102
f 2/7/103 8/51/104 9/19/105 1/18/106
f 34/10/107 11/52/108 10/11/109 12/22/110
f 8/51/111 31/9/112 30/25/113 7/24/114
f 31/9/115 34/10/116 33/28/117 32/27/118
f 26/13/119 6/12/120 4/14/121 24/17/122
f 29/16/123 3/15/124 1/18/125 27/21/126
f 22/20/127 9/19/128 7/24/129 23/54/130
f 12/22/131 16/23/132 18/29/133 33/28/134
f 15/26/135 30/25/136 32/27/137 13/30/138
f 53/31/139 54/32/140 52/33/141 51/34/142
f 46/35/143 44/36/144 48/37/145 50/38/146
f 67/91/147 68/92/148 69/93/149 70/94/150
f 63/59/151 65/60/152 36/39/153 38/40/154
f 48/41/155 44/36/156 36/39/157 65/61/158
f 46/35/159 50/42/160 63/62/161 38/40/162
f 47/63/163 61/64/164 59/65/165 49/66/166
s 1
f 45/67/167 71/95/168 72/96/169 43/70/170
s 2
f 35/71/171 73/97/172 74/98/173 37/74/174
s off
f 64/75/175 55/76/176 57/77/177 66/78/178
s 3
f 43/70/179 72/96/180 73/97/181 35/71/182
s off
f 66/79/183 57/80/184 61/81/185 47/82/186
f 49/83/187 59/84/188 55/85/189 64/86/190
s 4
f 37/74/191 74/98/192 71/95/193 45/67/194
s off
f 52/33/195 58/87/196 56/88/197 51/34/198
f 54/32/199 62/89/200 58/87/201 52/33/202
f 53/31/203 60/90/204 62/89/205 54/32/206
f 51/34/207 56/88/208 60/90/209 53/31/210
f 50/38/211 48/37/212 47/63/213 49/66/214
f 44/36/215 46/35/216 45/67/217 43/70/218
f 38/40/219 36/39/220 35/71/221 37/74/222
f 65/60/223 63/59/224 64/75/225 66/78/226
f 36/39/227 44/36/228 43/70/229 35/71/230
f 48/41/231 65/61/232 66/79/233 47/82/234
f 63/62/235 50/42/236 49/83/237 64/86/238
f 46/35/239 38/40/240 37/74/241 45/67/242
f 59/65/243 61/64/244 62/43/245 60/44/246
f 57/77/247 55/76/248 56/45/249 58/46/250
f 61/81/251 57/80/252 58/47/253 62/48/254
f 55/85/255 59/84/256 60/49/257 56/50/258
f 41/55/259 42/56/260 68/92/261 67/91/262
f 42/56/263 40/57/264 69/93/265 68/92/266
f 40/57/267 39/58/268 70/94/269 69/93/270
f 39/58/271 41/55/272 67/91/273 70/94/274
s 1
f 72/96/169 71/95/168 39/68/275 40/69/276
s 3
f 73/97/181 72/96/180 40/69/277 42/72/278
s 2
f 74/98/173 73/97/172 42/72/279 41/73/280
s 4
f 71/95/193 74/98/192 41/73/281 39/68/282
